# AST/ASF file generated using VICON BodyLanguage
# -----------------------------------------------
:version 1.10
:name VICON
:units
  mass 1.0
  length 0.45
  angle deg
:documentation
   .ast/.asf automatically generated from VICON data using
   VICON BodyBuilder and BodyLanguage model FoxedUp or BRILLIANT.MOD
:root
   order TX TY TZ RX RY RZ
   axis XYZ
   position 0 0 0  
   orientation 0 0 0 
:bonedata
  begin
     id 1 
     name lhipjoint
     direction 0.61886 -0.69539 0.365302 
     length 2.20474 
     axis 0 0 0  XYZ
  end
  begin
     id 2 
     name lfemur
     direction 0.34202 -0.939693 0  
     length 6.65149  
     axis 0 0 20  XYZ
    dof rx ry rz
    limits (-160.0 20.0)
           (-70.0 70.0)
           (-60.0 70.0)
  end
  begin
     id 3 
     name ltibia
     direction 0.34202 -0.939693 0   
     length 6.35814   
     axis 0 0 20   XYZ
    dof rx
    limits (-10.0 170.0)
  end
  begin
     id 4 
     name lfoot
     direction 0.101224 -0.278109 0.955201   
     length 2.18766   
     axis -90 7.62852e-016 20   XYZ
    dof rx rz
    limits (-45.0 90.0)
           (-70.0 20.0)
  end
  begin
     id 5 
     name ltoes
     direction 1.53524e-011 -4.21877e-011 1   
     length 1.09206   
     axis -90 7.62852e-016 20   XYZ
    dof rx
    limits (-90.0 20.0)
  end
  begin
     id 6 
     name rhipjoint
     direction -0.600207 -0.708087 0.371972   
     length 2.1652  
     axis 0 0 0  XYZ 
  end
  begin
     id 7 
     name rfemur
     direction -0.34202 -0.939693 0   
     length 6.54691   
     axis 0 0 -20   XYZ
    dof rx ry rz
    limits (-160.0 20.0)
           (-70.0 70.0)
           (-70.0 60.0)
  end
  begin
     id 8 
     name rtibia
     direction -0.34202 -0.939693 0   
     length 6.37474   
     axis 0 0 -20   XYZ
    dof rx
    limits (-10.0 170.0)
 end
 begin
     id 9 
     name rfoot
     direction -0.111266 -0.3057 0.945604   
     length 2.00903  
     axis -90 -7.62852e-016 -20   XYZ
    dof rx rz
    limits (-45.0 90.0)
           (-20.0 70.0)
  end
  begin
     id 10 
     name rtoes
     direction -1.5362e-011 -4.21913e-011 1   
     length 1.00221   
     axis -90 -7.62852e-016 -20   XYZ
    dof rx
    limits (-90.0 20.0)
  end
  begin
     id 11 
     name lowerback
     direction -0.0224561 0.999731 -0.00577314   
     length 2.10409   
     axis 0 0 0   XYZ
    dof rx ry rz
    limits (-20.0 45.0)
           (-30.0 30.0)
           (-30.0 30.0)
  end
  begin
     id 12 
     name upperback
     direction 0.0213126 0.999185 -0.0342817   
     length 2.09783   
     axis 0 0 0   XYZ
    dof rx ry rz
    limits (-20.0 45.0)
           (-30.0 30.0)
           (-30.0 30.0)
  end
  begin
     id 13 
     name thorax
     direction 0.0312356 0.999036 -0.0308451   
     length 2.09788   
     axis 0 0 0   XYZ
    dof rx ry rz
    limits (-20.0 45.0)
           (-30.0 30.0)
           (-30.0 30.0)
  end
  begin
     id 14 
     name lowerneck
     direction -0.0114419 0.996481 0.0830329   
     length 1.38575   
     axis 0 0 0   XYZ
    dof rx ry rz
    limits (-20.0 45.0)
           (-30.0 30.0)
           (-30.0 30.0)
  end
  begin
     id 15 
     name upperneck
     direction -0.0075675 0.996187 -0.0869092   
     length 1.39401   
     axis 0 0 0   XYZ
    dof rx ry rz
    limits (-20.0 45.0)
           (-30.0 30.0)
           (-30.0 30.0)
  end
  begin
     id 16
     name head
     direction -0.00222073 0.999264 -0.0382974  
     length 1.3964  
     axis 0 0 0   XYZ
    dof rx ry rz
    limits (-20.0 45.0)
           (-30.0 30.0)
           (-30.0 30.0)
  end
  begin
     id 17 
     name lclavicle
     direction 0.965962 0.222138 0.132556  
     length 2.81514  
     axis 0 0 0   XYZ
    dof ry rz
    limits (-20.0 10.0)
           (0.0 20.0)
  end
  begin
     id 18 
     name lhumerus
     direction 1 -4.48972e-011 7.03471e-018   
     length 4.47366   
     axis 180 -30 -90   XYZ
    dof rx ry rz
    limits (-60.0 90.0)
           (-90.0 90.0)
           (-90.0 90.0)
  end
  begin
     id 19
     name lradius
     direction 1 -4.48951e-011 -6.22192e-028   
     length 3.19948   
     axis 180 -30 -90   XYZ
    dof rx
    limits (-10.0 170.0)
  end
  begin
     id 20
     name lwrist
     direction 1 -4.48967e-011 -1.24264e-027   
     length 1.59974   
     axis 1.40095e-015 90 90   XYZ
    dof ry
    limits (-180.0 0.0)
 end
  begin
     id 21 
     name lhand
     direction 1 -4.4897e-011 -2.48528e-027   
     length 0.492667   
     axis 1.58582e-015 90 90   XYZ
    dof rx rz
    limits (-90.0 90.0)
           (-45.0 45.0)
  end
  begin
     id 22 
     name lfingers
     direction 1 -4.48996e-011 -4.97056e-027   
     length 0.397201   
     axis 3.17164e-015 90 90   XYZ
    dof rx
    limits (0.0 90.0)
  end
  begin
     id 23
     name lthumb
     direction 0.707107 -6.34981e-011 0.707107   
     length 0.570303   
     axis -90 45 2.85299e-015   XYZ
    dof rx rz
    limits (-45.0 45.0)
           (-45.0 45.0)
  end
  begin
     id 24 
     name rclavicle
     direction -0.961164 0.229034 0.153972   
     length 3.09348  
     axis 0 0 0   XYZ 
    dof ry rz
    limits (-10.0 20.0)
           (-20.0 0.0)
  end
  begin
     id 25 
     name rhumerus
     direction -1 -4.48971e-011 -9.06263e-028  
     length 4.3269   
     axis 180 30 90   XYZ
    dof rx ry rz
    limits (-90.0 60.0)
           (-90.0 90.0)
           (-90.0 90.0)
  end
  begin
     id 26 
     name rradius
     direction -1 -4.48953e-011 1.44659e-027   
     length 3.1896   
     axis 180 30 90   XYZ
    dof rx
    limits (-10.0 170.0)
  end
  begin
     id 27 
     name rwrist
     direction -1 -4.48988e-011 -1.24264e-027   
     length 1.5948   
     axis 1.40095e-015 -90 -90   XYZ
    dof ry
    limits (-180.0 0.0)
  end
  begin
     id 28
     name rhand
     direction -1 -4.49033e-011 -2.48528e-027   
     length 0.464496   
     axis 1.58582e-015 -90 -90   XYZ
    dof rx rz
    limits (-90.0 90.0)
           (-45.0 45.0)
  end
  begin
     id 29
     name rfingers
     direction -1 -4.48905e-011 -4.97056e-027   
     length 0.374489   
     axis 3.17164e-015 -90 -90   XYZ
    dof rx
    limits (0.0 90.0)
  end
  begin
     id 30
     name rthumb
     direction -0.707107 -6.34909e-011 0.707107   
     length 0.537693   
     axis -90 -45 -2.85299e-015   XYZ
    dof rx rz
    limits (-45.0 45.0)
           (-45.0 45.0)
  end
:hierarchy
  begin
    root lhipjoint rhipjoint lowerback
    lhipjoint lfemur
    lfemur ltibia
    ltibia lfoot
    lfoot ltoes
    rhipjoint rfemur
    rfemur rtibia
    rtibia rfoot
    rfoot rtoes
    lowerback upperback
    upperback thorax
    thorax lowerneck lclavicle rclavicle
    lowerneck upperneck
    upperneck head
    lclavicle lhumerus
    lhumerus lradius
    lradius lwrist
    lwrist lhand lthumb
    lhand lfingers
    rclavicle rhumerus
    rhumerus rradius
    rradius rwrist
    rwrist rhand rthumb
    rhand rfingers
  end

#!OML:ASF G:\acrobat\cartwheel_test 2\Patient 1\Session 2\acrobat4.ASF
:FULLY-SPECIFIED
:DEGREES
2642
root 11.5689 14.6098 -19.6914 15.0104 -5.17003 1078.63
lowerback -2.00127 0.480621 -6.3644
upperback 1.43107 0.758238 3.58416
thorax 2.48241 0.233046 7.37002
lowerneck -16.3298 -2.02206 -3.59307
upperneck 41.123 -0.503654 -3.19865
head 18.1522 -1.23385 -0.957152
rclavicle -9.93923e-016 -9.14409e-015
rhumerus -24.4477 -5.3106 -72.6592
rradius 34.6797
rwrist -4.96196
rhand -18.3396 -1108.64
rfingers 7.12502
rthumb 7.94262 -58.4727
lclavicle -9.93923e-016 -9.14409e-015
lhumerus -31.9173 4.1742 75.5718
lradius 51.213
lwrist 35.5269
lhand -38.7502 -359.15
lfingers 7.12502
lthumb -11.7628 -329.501
rfemur -9.05535 -8.17292 26.1784
rtibia 52.2077
rfoot -3.78052 -3.04901
rtoes -18.4008
lfemur -29.6418 1.2467 -24.7774
ltibia 48.5808
lfoot 142.648 -171.045
ltoes -8.53614
2643
root 11.5564 14.638 -19.8982 14.9104 -5.8554 1078.86
lowerback -1.91693 0.540619 -6.7244
upperback 0.970606 0.843089 3.50724
thorax 1.93733 0.309049 7.49131
lowerneck -15.5512 -1.90919 -4.02996
upperneck 40.2073 -0.270041 -3.146
head 17.4241 -1.18777 -0.770119
rclavicle -6.36111e-015 -3.57812e-015
rhumerus -25.3211 -2.16609 -73.7165
rradius 38.1096
rwrist -6.69919
rhand -17.8381 -1108.95
rfingers 7.12502
rthumb 8.42657 -58.7622
lclavicle -6.36111e-015 -3.57812e-015
lhumerus -32.8454 3.46835 75.9808
lradius 53.7937
lwrist 35.4275
lhand -39.0314 -358.637
lfingers 7.12502
lthumb -12.034 -329.003
rfemur -8.89816 -7.13079 26.6061
rtibia 49.833
rfoot -4.38001 -4.3881
rtoes -22.8785
lfemur -30.49 1.98126 -25.0741
ltibia 48.6916
lfoot 143.081 -171.198
ltoes -9.40147
2644
root 11.5416 14.6439 -20.1274 14.5527 -6.55599 1079.69
lowerback -1.45485 0.56935 -7.67689
upperback 0.585824 0.87373 3.29044
thorax 1.26218 0.359201 7.79968
lowerneck -14.5964 -1.77284 -4.43936
upperneck 39.1564 -0.0221551 -3.1474
head 16.6084 -1.12779 -0.611464
rclavicle -9.93923e-016 3.06128e-014
rhumerus -25.9543 0.607899 -74.7042
rradius 41.345
rwrist -8.31915
rhand -17.4893 -1109.24
rfingers 7.12502
rthumb 8.76318 -59.0359
lclavicle -9.93923e-016 3.06128e-014
lhumerus -33.4446 3.01467 76.3493
lradius 55.8376
lwrist 35.6804
lhand -38.5843 -358.844
lfingers 7.12502
lthumb -11.6028 -329.186
rfemur -8.5707 -5.9867 26.3505
rtibia 48.5074
rfoot -5.36973 -6.12237
rtoes -27.697
lfemur -31.2053 2.71666 -25.9859
ltibia 48.6529
lfoot 143.901 -171.653
ltoes -9.26786
2645
root 11.5274 14.6388 -20.3636 13.8707 -7.0375 1080.94
lowerback -0.563652 0.396971 -9.14274
upperback 0.35623 0.589937 3.16527
thorax 0.564112 0.251639 8.50013
lowerneck -13.7144 -1.48958 -4.85799
upperneck 38.0564 0.529293 -3.40378
head 15.8246 -0.96979 -0.517514
rclavicle 2.18663e-015 3.81667e-014
rhumerus -26.1358 3.70984 -75.5837
rradius 44.3562
rwrist -9.82863
rhand -17.2605 -1110.02
rfingers 7.12502
rthumb 8.98397 -59.8088
lclavicle 2.18663e-015 3.81667e-014
lhumerus -33.7373 3.34937 76.8029
lradius 57.203
lwrist 35.8883
lhand -37.3161 -359.817
lfingers 7.12502
lthumb -10.3796 -330.094
rfemur -8.0795 -4.86276 25.5848
rtibia 47.7823
rfoot -6.95762 -7.59648
rtoes -29.2107
lfemur -31.7076 3.29589 -27.3137
ltibia 48.6518
lfoot 144.94 -171.798
ltoes -9.34143
2646
root 11.5213 14.639 -20.5899 12.9898 -7.21172 1081.79
lowerback 0.496825 1.29521 -8.06881
upperback 0.123093 1.68948 1.45976
thorax -0.429666 0.860598 6.03442
lowerneck -12.2695 -2.10476 -3.59622
upperneck 37.2145 -1.12943 -2.74045
head 15.0316 -1.36581 -0.692295
rclavicle -8.74653e-015 -9.14409e-015
rhumerus -27.5686 1.58319 -77.2951
rradius 47.0653
rwrist -10.2211
rhand -16.7712 -1109.55
rfingers 7.12502
rthumb 9.45609 -59.3206
lclavicle -8.74653e-015 -9.14409e-015
lhumerus -32.5458 -0.803125 76.42
lradius 57.6222
lwrist 36.4763
lhand -36.9598 -359.883
lfingers 7.12502
lthumb -10.0359 -330.143
rfemur -7.42197 -4.14132 25.0855
rtibia 47.2406
rfoot -8.9563 -8.34475
rtoes -29.0542
lfemur -32.0182 3.66066 -28.1908
ltibia 48.8605
lfoot 145.889 -171.687
ltoes -9.82891
2647
root 11.5315 14.6461 -20.7905 12.275 -7.34256 1081.42
lowerback 1.2343 0.926121 -7.9655
upperback 0.536269 1.15175 2.2226
thorax -0.340044 0.573895 6.78295
lowerneck -12.8298 -1.68331 -4.22073
upperneck 36.6599 0.00675816 -3.58887
head 14.9133 -1.08388 -0.750977
rclavicle 2.3059e-014 1.23246e-014
rhumerus -26.0096 4.75979 -77.4017
rradius 48.5892
rwrist -11.0703
rhand -16.4129 -1108.9
rfingers 7.12502
rthumb 9.80183 -58.6469
lclavicle 2.3059e-014 1.23246e-014
lhumerus -31.6409 1.27751 77.4248
lradius 57.2533
lwrist 35.9412
lhand -37.2218 -359.325
lfingers 7.12502
lthumb -10.2886 -329.596
rfemur -6.79981 -3.86675 25.5058
rtibia 46.6708
rfoot -10.5061 -8.08749
rtoes -29.072
lfemur -32.371 4.05884 -27.8274
ltibia 49.2715
lfoot 146.492 -171.886
ltoes -8.32997
2648
root 11.5523 14.6602 -20.9567 11.9829 -7.49688 1080.07
lowerback 1.37959 0.922107 -6.29171
upperback 0.694133 1.16064 2.76851
thorax -0.239555 0.570267 6.39921
lowerneck -12.6948 -1.57931 -4.42986
upperneck 36.4454 0.38568 -4.08752
head 14.7907 -1.01423 -0.854942
rclavicle 1.0635e-014 1.03368e-014
rhumerus -25.2403 6.21035 -77.565
rradius 49.4668
rwrist -11.1892
rhand -16.4952 -1108.9
rfingers 7.12502
rthumb 9.72238 -58.6564
lclavicle 1.0635e-014 1.03368e-014
lhumerus -30.6501 1.99393 78.3515
lradius 55.8765
lwrist 35.0521
lhand -37.1589 -358.755
lfingers 7.12502
lthumb -10.2279 -329.024
rfemur -6.52133 -3.76343 26.6845
rtibia 46.0739
rfoot -11.2967 -6.783
rtoes -28.469
lfemur -32.9421 4.40495 -26.4694
ltibia 49.7462
lfoot 146.95 -171.975
ltoes -5.95389
2649
root 11.5685 14.6823 -21.0945 11.8945 -7.59343 1078.76
lowerback 0.978225 1.08057 -4.42953
upperback 0.808099 1.40869 3.04682
thorax 0.0998493 0.684191 5.62904
lowerneck -12.1926 -1.66681 -4.23285
upperneck 36.389 0.272403 -4.39422
head 14.6475 -1.06932 -1.02682
rclavicle 1.31198e-014 -1.51076e-014
rhumerus -24.7963 6.43045 -77.7357
rradius 49.6534
rwrist -10.6604
rhand -16.5944 -1108.66
rfingers 7.12502
rthumb 9.62665 -58.4237
lclavicle 1.31198e-014 -1.51076e-014
lhumerus -29.6397 1.89151 79.2584
lradius 53.9262
lwrist 34.0966
lhand -37.5527 -358.318
lfingers 7.12502
lthumb -10.6079 -328.606
rfemur -6.53933 -3.81853 27.7307
rtibia 45.5565
rfoot -11.1724 -5.1078
rtoes -28.0493
lfemur -33.5014 4.488 -25.1355
ltibia 50.0668
lfoot 147.292 -171.185
ltoes -6.17257
2650
root 11.571 14.7106 -21.2149 11.6464 -7.79901 1078.08
lowerback 0.523302 1.13457 -3.55678
upperback 1.16613 1.49302 3.33739
thorax 0.726582 0.704983 5.44898
lowerneck -12.1619 -1.68916 -3.96094
upperneck 36.4083 0.333304 -4.87532
head 14.6518 -1.07036 -1.26489
rclavicle 2.5842e-015 2.38542e-014
rhumerus -23.8217 6.68911 -77.7095
rradius 49.1474
rwrist -9.87714
rhand -16.7139 -1108.24
rfingers 7.12502
rthumb 9.51142 -58.0053
lclavicle 2.5842e-015 2.38542e-014
lhumerus -28.6068 2.29884 80.2875
lradius 51.9261
lwrist 33.5187
lhand -37.8891 -357.992
lfingers 7.12502
lthumb -10.9323 -328.297
rfemur -6.56994 -3.84782 28.1278
rtibia 45.2102
rfoot -10.7244 -3.63381
rtoes -28.2025
lfemur -33.6529 4.41806 -24.4109
ltibia 50.0354
lfoot 147.433 -170.114
ltoes -6.97105
2651
root 11.5585 14.7472 -21.3189 11.2114 -8.19778 1078.05
lowerback 0.247923 1.11906 -3.65013
upperback 1.44933 1.47451 3.52059
thorax 1.16887 0.675973 5.70568
lowerneck -12.1431 -1.65143 -3.73928
upperneck 36.6265 0.463957 -5.24707
head 14.7549 -1.04014 -1.44576
rclavicle -6.95746e-015 -3.26007e-014
rhumerus -22.9851 6.84062 -77.7715
rradius 48.1534
rwrist -9.10965
rhand -16.8263 -1108.14
rfingers 7.12502
rthumb 9.40299 -57.9121
lclavicle -6.95746e-015 -3.26007e-014
lhumerus -28.3179 2.66728 81.2468
lradius 50.2741
lwrist 33.8386
lhand -37.3576 -358.805
lfingers 7.12502
lthumb -10.4196 -329.083
rfemur -6.57598 -3.46543 27.9708
rtibia 45.074
rfoot -10.3912 -2.72424
rtoes -26.9075
lfemur -33.3317 4.1549 -24.2611
ltibia 49.6108
lfoot 147.565 -169.431
ltoes -6.10903
